<svg width="41" height="40" viewBox="0 0 41 40" fill="none" xmlns="http://www.w3.org/2000/svg">
<path d="M15.1266 36.6693H25.1266C33.4599 36.6693 36.7933 33.3359 36.7933 25.0026V15.0026C36.7933 6.66927 33.4599 3.33594 25.1266 3.33594H15.1266C6.79326 3.33594 3.45993 6.66927 3.45993 15.0026V25.0026C3.45993 33.3359 6.79326 36.6693 15.1266 36.6693Z" stroke="#F6F5F2" stroke-width="1.5" stroke-linecap="round" stroke-linejoin="round"/>
<path d="M15.291 20.0005V17.5338C15.291 14.3505 17.541 13.0671 20.291 14.6505L22.4243 15.8838L24.5577 17.1171C27.3077 18.7005 27.3077 21.3005 24.5577 22.8838L22.4243 24.1171L20.291 25.3505C17.541 26.9338 15.291 25.6338 15.291 22.4671V20.0005Z" stroke="#F6F5F2" stroke-width="1.5" stroke-miterlimit="10" stroke-linecap="round" stroke-linejoin="round"/>
</svg>
