<svg width="29" height="29" viewBox="0 0 29 29" fill="none" xmlns="http://www.w3.org/2000/svg">
<path d="M14.6446 15.443C14.5601 15.4309 14.4513 15.4309 14.3546 15.443C12.228 15.3705 10.5363 13.6305 10.5363 11.4918C10.5363 9.30469 12.3005 7.52844 14.4996 7.52844C16.6867 7.52844 18.463 9.30469 18.463 11.4918C18.4509 13.6305 16.7713 15.3705 14.6446 15.443Z" stroke="#2D2D2D" stroke-width="1.5" stroke-linecap="round" stroke-linejoin="round"/>
<path d="M22.6439 23.4181C20.493 25.3877 17.6414 26.584 14.4997 26.584C11.358 26.584 8.50636 25.3877 6.35553 23.4181C6.47636 22.2823 7.20136 21.1706 8.49428 20.3006C11.8051 18.1015 17.2184 18.1015 20.5051 20.3006C21.798 21.1706 22.523 22.2823 22.6439 23.4181Z" stroke="#2D2D2D" stroke-width="1.5" stroke-linecap="round" stroke-linejoin="round"/>
<path d="M14.5 26.5833C21.1735 26.5833 26.5834 21.1734 26.5834 14.5C26.5834 7.82652 21.1735 2.41663 14.5 2.41663C7.82658 2.41663 2.41669 7.82652 2.41669 14.5C2.41669 21.1734 7.82658 26.5833 14.5 26.5833Z" stroke="#2D2D2D" stroke-width="1.5" stroke-linecap="round" stroke-linejoin="round"/>
</svg>
